Coordinates
version=1
nRows=8
nColumns=40
inDegrees=yes

Units are S.I. units (second, meters, Newtons, ...)
If the header above contains a line with 'inDegrees', this indicates whether rotational values are in degrees (yes) or radians (no).

endheader
time	pelvis_tilt	pelvis_list	pelvis_rotation	pelvis_tx	pelvis_ty	pelvis_tz	hip_flexion_r	hip_adduction_r	hip_rotation_r	knee_angle_r	knee_angle_r_beta	ankle_angle_r	subtalar_angle_r	mtp_angle_r	hip_flexion_l	hip_adduction_l	hip_rotation_l	knee_angle_l	knee_angle_l_beta	ankle_angle_l	subtalar_angle_l	mtp_angle_l	lumbar_extension	lumbar_bending	lumbar_rotation	arm_flex_r	arm_add_r	arm_rot_r	elbow_flex_r	pro_sup_r	wrist_flex_r	wrist_dev_r	arm_flex_l	arm_add_l	arm_rot_l	elbow_flex_l	pro_sup_l	wrist_flex_l	wrist_dev_l
      5.63500000	    -35.89071162	      1.38871466	      1.68766551	     -0.51102062	      0.58081986	     -0.91273375	    103.31708790	    -11.53421642	     10.83354014	    109.17198832	      1.90541065	     42.69514066	      0.00000000	      0.00000000	    104.73676331	    -16.55933803	      2.22758346	    108.97667295	      1.90200175	     39.73548188	      0.00000000	      0.00000000	    -18.91678198	     -3.05850303	     -2.30983049	     -2.22541141	    -46.25679582	     63.38264894	     84.63239578	     87.88540094	      0.00000000	      0.00000000	    -20.80799742	    -43.75388431	     39.78051731	     90.25842945	     87.91254301	      0.00000000	      0.00000000
      5.64000000	    -35.17992131	      1.20876974	      1.77864738	     -0.50985206	      0.58210918	     -0.91285029	    102.39129788	    -11.74347234	     10.55315757	    109.21397916	      1.90614353	     42.79108550	      0.00000000	      0.00000000	    103.97355112	    -16.48386877	      2.37385277	    109.07218809	      1.90366880	     39.90914803	      0.00000000	      0.00000000	    -19.83624847	     -2.80167899	     -1.54552546	     -3.66940412	    -46.15387686	     61.51319789	     84.56729432	     87.89425329	      0.00000000	      0.00000000	    -18.87598761	    -44.11096593	     41.90370515	     89.94421623	     87.90077867	      0.00000000	      0.00000000
      5.64500000	    -35.28846759	      1.16538803	      1.71322392	     -0.51016603	      0.58166330	     -0.91244737	    102.53169345	    -11.62200238	     10.50448606	    109.22122148	      1.90626993	     42.82636510	      0.00000000	      0.00000000	    104.16844645	    -16.54994539	      2.49572534	    109.09530669	      1.90407230	     39.86521009	      0.00000000	      0.00000000	    -19.79383137	     -2.80272300	     -2.36630928	     -1.70277065	    -46.26635892	     63.84229471	     84.51203491	     87.88605547	      0.00000000	      0.00000000	    -20.72875815	    -43.71445694	     39.76304182	     90.21315181	     87.90963773	      0.00000000	      0.00000000
      5.65000000	    -35.41400099	      1.13482267	      1.74958777	     -0.51043117	      0.58138360	     -0.91232312	    102.68632129	    -11.64100448	     10.47382064	    109.22880131	      1.90640222	     42.75365156	      0.00000000	      0.00000000	    104.33041081	    -16.51036233	      2.54981707	    109.07428499	      1.90370540	     39.93775929	      0.00000000	      0.00000000	    -19.74896732	     -2.77804710	     -2.21371782	     -2.13118207	    -46.24719680	     63.33921161	     84.57408043	     87.88592652	      0.00000000	      0.00000000	    -20.40799945	    -43.88718187	     40.19142590	     90.29694557	     87.91936134	      0.00000000	      0.00000000
      5.65500000	    -35.36678671	      1.09937587	      1.80556989	     -0.51031858	      0.58155863	     -0.91229805	    102.59886342	    -11.71454484	     10.44055377	    109.20182790	      1.90593145	     42.84008850	      0.00000000	      0.00000000	    104.27501608	    -16.43208358	      2.59562931	    109.05789011	      1.90341926	     39.94835623	      0.00000000	      0.00000000	    -19.86698384	     -2.72124229	     -2.37432146	     -1.72699742	    -46.26004225	     63.85250857	     84.52842739	     87.87237669	      0.00000000	      0.00000000	    -20.51490257	    -43.87196187	     40.10697144	     90.29150706	     87.91448898	      0.00000000	      0.00000000
      5.66000000	    -35.41987673	      1.11223207	      1.71993804	     -0.51032142	      0.58174678	     -0.91193522	    102.61667247	    -11.57355963	     10.42406602	    109.14406132	      1.90492323	     42.82768188	      0.00000000	      0.00000000	    104.29859139	    -16.53528841	      2.60423426	    108.99436940	      1.90231061	     39.89686014	      0.00000000	      0.00000000	    -19.85992251	     -2.78141966	     -1.97012803	     -2.30651642	    -46.21987393	     63.18687333	     84.54221802	     87.87883650	      0.00000000	      0.00000000	    -19.78050149	    -44.15085756	     41.00885263	     90.25384189	     87.91420372	      0.00000000	      0.00000000
      5.66500000	    -35.45965820	      1.09503608	      1.75604796	     -0.51035124	      0.58191287	     -0.91187265	    102.63248716	    -11.60681542	     10.39198489	    109.11330794	      1.90438648	     42.77273028	      0.00000000	      0.00000000	    104.31953951	    -16.46752231	      2.63855159	    108.95202065	      1.90157149	     39.84669066	      0.00000000	      0.00000000	    -19.86489236	     -2.75980019	     -1.74629094	     -2.82862448	    -46.23200904	     62.55132341	     84.63145220	     87.90945190	      0.00000000	      0.00000000	    -19.26528285	    -44.37403057	     41.61899514	     90.35099705	     87.93070312	      0.00000000	      0.00000000
      5.67000000	    -36.38633505	      1.25627124	      2.14266672	     -0.51196057	      0.58063269	     -0.91262635	    103.78882703	    -11.90791075	     10.76448882	    109.04460415	      1.90318737	     42.62696220	      0.00000000	      0.00000000	    105.26293673	    -15.92107681	      2.43777793	    108.74251983	      1.89791501	     39.63851080	      0.00000000	      0.00000000	    -18.84391096	     -2.81621418	     -2.10945070	     -2.92953314	    -46.34428795	     62.66693086	     84.79280327	     87.88793338	      0.00000000	      0.00000000	    -19.18313366	    -44.57344493	     41.98486905	     90.48273934	     87.90900410	      0.00000000	      0.00000000
